# xmcd CD database file
#
# Track frame offsets:
#	150
#	21645
#	39964
#	64134
#	82592
#	100521
#	116332
#	132533
#	146561
#	178254
#	189301
#	203803
#	221119
#	233085
#	245943
#	271032
#	291970
#	308868
#
# Disc length: 4434 seconds
#
# Revision: 0
# Processed by: cddbd v1.5.2PL0 Copyright (c) Steve Scherf et al.
# Submitted via: CDex 1.51
#
DISCID=08115012
DTITLE=Voyage - Voyage
DYEAR=1900
DGENRE=New Age
TTITLE0=Sting - Desert Rose
TTITLE1=Enigma - Return to Innocence
TTITLE2=Gregoriam - Once in a lifetime (extended version)
TTITLE3=Nusound - Majorca
TTITLE4=Enya - Caribean Bleu
TTITLE5=Vangelis - Chariots of Fire
TTITLE6=Mike Oldfield - Moonlight shadow
TTITLE7=Jean Michel Jarre - Oxygene (part IV)
TTITLE8=Kitaro - Orochi
TTITLE9=Milla Jovovich - In a Glade
TTITLE10=Secret Garden - Nocturne
TTITLE11=Pink Floyd - Onother brick in the wall (part II)
TTITLE12=Karl Orf - Carmina Burana O Fortuna
TTITLE13=DJ Dado - X- files
TTITLE14=Gregorian - tears in heaven
TTITLE15=Nusound - For want of her
TTITLE16=Enya - Angw heie is
TTITLE17=Limp Bizkit - Take a look around ( MI2 theme song)
EXTD=
EXTT0=
EXTT1=
EXTT2=
EXTT3=
EXTT4=
EXTT5=
EXTT6=
EXTT7=
EXTT8=
EXTT9=
EXTT10=
EXTT11=
EXTT12=
EXTT13=
EXTT14=
EXTT15=
EXTT16=
EXTT17=
PLAYORDER=
